<svg width="7em" height="150px" viewBox="0 0 892 784" fill="none" xmlns="http://www.w3.org/2000/svg">
<circle r="274.5" transform="matrix(1 0 0 -1 445.5 497.5)" stroke="black" stroke-width="24"/>
<path d="M622.096 455.602C623.176 453.403 622.217 450.72 619.955 449.609L583.089 431.506C580.826 430.395 578.117 431.277 577.037 433.476C575.957 435.675 576.916 438.358 579.178 439.469L611.949 455.561L596.308 487.412C595.228 489.611 596.187 492.294 598.449 493.405C600.711 494.516 603.42 493.634 604.5 491.435L622.096 455.602ZM446.514 514.147L619.514 457.829L616.486 449.353L443.486 505.671L446.514 514.147Z" fill="black"/>
<path d="M302.387 315.632C300.994 315.409 299.691 316.308 299.478 317.641L295.996 339.361C295.782 340.694 296.738 341.956 298.131 342.179C299.525 342.402 300.827 341.503 301.041 340.17L304.136 320.863L324.315 324.098C325.708 324.321 327.01 323.422 327.224 322.089C327.438 320.756 326.482 319.494 325.088 319.271L302.387 315.632ZM446.964 505.18L304.057 316.625L299.943 319.466L442.85 508.021L446.964 505.18Z" fill="black"/>
<circle cx="445" cy="507" r="19" fill="black"/>
<path d="M167.156 779.227C132.586 769.461 106.512 753.348 88.9336 730.887C71.5508 708.621 62.8594 679.129 62.8594 642.41V584.109C62.8594 536.648 42.1562 512.918 0.75 512.918V470.438C42.1562 470.438 62.8594 446.805 62.8594 399.539V338.602C63.25 302.859 71.9414 274.051 88.9336 252.176C106.121 230.105 132.195 214.09 167.156 204.129L178.289 237.82C137.469 250.906 117.059 284.988 117.059 340.066V399.246C117.059 443.582 100.75 474.441 68.1328 491.824C100.75 509.402 117.059 540.555 117.059 585.281V645.633C117.645 699.344 138.055 732.645 178.289 745.535L167.156 779.227Z" fill="black"/>
<path d="M713.566 746.535C753.215 733.84 773.723 701.516 775.09 649.562V585.109C775.09 539.992 792.766 509.23 828.117 492.824C792.766 476.809 775.09 446.047 775.09 400.539V341.066C775.09 285.988 754.68 251.906 713.859 238.82L724.992 205.129C759.562 214.895 785.539 230.813 802.922 252.883C820.305 274.758 829.094 303.762 829.289 339.895V401.418C829.289 448.098 849.992 471.438 891.398 471.438V513.918C849.992 513.918 829.289 537.648 829.289 585.109V644.289C829.289 681.008 820.402 710.402 802.629 732.473C785.051 754.543 759.172 770.461 724.992 780.227L713.566 746.535Z" fill="black"/>
<path d="M227.426 162.189C212.318 166.838 196.824 169.162 180.941 169.162C122.836 169.162 93.7832 140.303 93.7832 82.585C93.7832 27.9658 122.836 0.65625 180.941 0.65625C196.824 0.65625 212.318 2.98047 227.426 7.62891V18.0879C212.318 13.4395 197.598 11.1152 183.266 11.1152C131.745 11.1152 105.985 34.9385 105.985 82.585C105.985 133.33 131.745 158.703 183.266 158.703C197.598 158.703 212.318 156.379 227.426 151.73V162.189ZM269.378 106.524C269.378 141.31 284.292 158.703 314.119 158.703C343.947 158.703 358.86 141.31 358.86 106.524C358.86 72.3584 343.947 55.2754 314.119 55.2754C284.292 55.2754 269.378 72.3584 269.378 106.524ZM257.176 106.989C257.176 65.5407 276.157 44.8164 314.119 44.8164C352.081 44.8164 371.062 65.5407 371.062 106.989C371.062 148.36 352.081 169.046 314.119 169.046C276.312 169.046 257.331 148.36 257.176 106.989ZM491.341 63.875C479.565 59.6914 467.324 57.5996 454.618 57.5996C424.636 57.5996 409.645 72.9782 409.645 103.735C409.645 139.296 424.636 157.076 454.618 157.076C467.324 157.076 479.565 155.565 491.341 152.544V63.875ZM503.543 160.679C490.295 165.56 473.599 168 453.456 168C415.571 168 396.629 146.85 396.629 104.549C396.629 65.502 415.92 45.9785 454.502 45.9785C466.588 45.9785 478.868 47.9154 491.341 51.7891V1.81836H503.543V160.679ZM556.419 1.81836V15.7637H541.893V1.81836H556.419ZM555.257 45.9785V168H543.055V45.9785H555.257ZM594.42 26.2227H603.02L605.228 45.9785H641.834V56.4375H606.273V133.485C606.273 149.522 612.161 157.541 623.938 157.541H641.834V168H624.17C604.337 168 594.42 157.037 594.42 135.112V26.2227ZM653.339 45.9785H667.4L712.723 156.146L757.348 45.9785H770.828L717.836 171.603C708.849 193.76 695.368 207.589 677.395 213.09L673.792 203.328C687.892 198.215 698.661 187.059 706.099 169.859L653.339 45.9785Z" fill="black"/>
</svg>
